<?xml version="1.0" standalone="no"?>
<!DOCTYPE svg PUBLIC "-//W3C//DTD SVG 20010904//EN"
 "http://www.w3.org/TR/2001/REC-SVG-20010904/DTD/svg10.dtd">
<svg version="1.0" xmlns="http://www.w3.org/2000/svg"
 width="1048.000000pt" height="433.000000pt" viewBox="0 0 1048.000000 433.000000"
 preserveAspectRatio="xMidYMid meet">

<g transform="translate(0.000000,433.000000) scale(0.100000,-0.100000)"
fill="#000000" stroke="none">
<path d="M2880 2320 l0 -970 972 0 973 0 -970 970 c-533 534 -971 970 -972
970 -2 0 -3 -436 -3 -970z"/>
<path d="M4338 2803 l-477 -478 473 -471 c260 -259 478 -474 484 -478 9 -5 12
225 12 948 0 526 -3 956 -8 956 -4 0 -222 -215 -484 -477z"/>
<path d="M6830 2335 l0 -695 175 0 175 0 0 135 0 135 57 45 c32 24 61 41 65
37 5 -5 55 -85 112 -178 l104 -169 196 -3 c108 -1 196 0 196 3 0 4 -81 133
-181 287 -99 154 -178 286 -175 293 2 7 76 100 163 206 88 107 162 200 167
207 6 9 -34 12 -186 12 l-193 -1 -130 -165 c-71 -91 -145 -190 -165 -219 -33
-52 -62 -76 -44 -37 4 9 10 194 12 410 l4 392 -176 0 -176 0 0 -695z"/>
<path d="M5365 2664 c-11 -2 -45 -9 -75 -15 -150 -30 -267 -137 -311 -281 -13
-40 -19 -81 -15 -98 3 -16 1 -32 -4 -35 -13 -8 -12 -150 0 -238 19 -131 108
-255 224 -312 86 -42 153 -56 281 -60 131 -4 237 11 329 45 l56 21 0 115 c0
69 -4 113 -9 109 -5 -3 -12 -1 -15 3 -3 5 -31 0 -63 -10 -103 -35 -196 -48
-271 -39 -116 15 -173 60 -196 154 l-6 27 259 0 c322 0 337 5 342 105 2 29 2
29 8 -5 6 -30 8 -23 13 40 8 84 -7 174 -41 253 -39 90 -143 170 -264 203 -52
14 -209 26 -242 18z m165 -251 c34 -19 70 -80 70 -117 l0 -26 -150 0 c-136 0
-150 2 -150 18 1 36 40 102 72 122 41 25 119 27 158 3z"/>
<path d="M6543 2652 c-68 -24 -130 -68 -165 -117 -16 -22 -34 -40 -40 -40 -6
0 -22 34 -37 75 l-26 75 -132 3 -133 3 0 -506 0 -505 175 0 175 0 0 274 0 274
28 52 c40 78 78 95 210 95 56 0 102 3 102 6 0 3 7 75 15 159 9 84 14 154 13
155 -2 2 -32 6 -68 9 -50 5 -77 2 -117 -12z"/>
</g>
</svg>
